<?xml version="1.0" encoding="UTF-8"?>
<svg width="1024" height="1024" viewBox="0 0 1024 1024" 
     xmlns="http://www.w3.org/2000/svg">
  <title>Customs Edge Logo - Traced</title>
  <g fill="#6366f1" opacity="0.8">
    <rect x="0" y="0" width="20" height="20"/>
    <rect x="20" y="0" width="20" height="20"/>
    <rect x="40" y="0" width="20" height="20"/>
    <rect x="60" y="0" width="20" height="20"/>
    <rect x="80" y="0" width="20" height="20"/>
    <rect x="100" y="0" width="20" height="20"/>
    <rect x="120" y="0" width="20" height="20"/>
    <rect x="140" y="0" width="20" height="20"/>
    <rect x="160" y="0" width="20" height="20"/>
    <rect x="180" y="0" width="20" height="20"/>
    <rect x="200" y="0" width="20" height="20"/>
    <rect x="220" y="0" width="20" height="20"/>
    <rect x="240" y="0" width="20" height="20"/>
    <rect x="260" y="0" width="20" height="20"/>
    <rect x="280" y="0" width="20" height="20"/>
    <rect x="300" y="0" width="20" height="20"/>
    <rect x="320" y="0" width="20" height="20"/>
    <rect x="340" y="0" width="20" height="20"/>
    <rect x="360" y="0" width="20" height="20"/>
    <rect x="380" y="0" width="20" height="20"/>
    <rect x="400" y="0" width="20" height="20"/>
    <rect x="420" y="0" width="20" height="20"/>
    <rect x="440" y="0" width="20" height="20"/>
    <rect x="460" y="0" width="20" height="20"/>
    <rect x="480" y="0" width="20" height="20"/>
    <rect x="500" y="0" width="20" height="20"/>
    <rect x="520" y="0" width="20" height="20"/>
    <rect x="540" y="0" width="20" height="20"/>
    <rect x="560" y="0" width="20" height="20"/>
    <rect x="580" y="0" width="20" height="20"/>
    <rect x="600" y="0" width="20" height="20"/>
    <rect x="620" y="0" width="20" height="20"/>
    <rect x="640" y="0" width="20" height="20"/>
    <rect x="660" y="0" width="20" height="20"/>
    <rect x="680" y="0" width="20" height="20"/>
    <rect x="700" y="0" width="20" height="20"/>
    <rect x="720" y="0" width="20" height="20"/>
    <rect x="740" y="0" width="20" height="20"/>
    <rect x="760" y="0" width="20" height="20"/>
    <rect x="780" y="0" width="20" height="20"/>
    <rect x="800" y="0" width="20" height="20"/>
    <rect x="820" y="0" width="20" height="20"/>
    <rect x="840" y="0" width="20" height="20"/>
    <rect x="860" y="0" width="20" height="20"/>
    <rect x="880" y="0" width="20" height="20"/>
    <rect x="900" y="0" width="20" height="20"/>
    <rect x="920" y="0" width="20" height="20"/>
    <rect x="940" y="0" width="20" height="20"/>
    <rect x="960" y="0" width="20" height="20"/>
    <rect x="980" y="0" width="20" height="20"/>
    <rect x="1000" y="0" width="20" height="20"/>
    <rect x="1020" y="0" width="20" height="20"/>
    <rect x="0" y="20" width="20" height="20"/>
    <rect x="0" y="40" width="20" height="20"/>
    <rect x="0" y="60" width="20" height="20"/>
    <rect x="0" y="80" width="20" height="20"/>
    <rect x="0" y="100" width="20" height="20"/>
    <rect x="0" y="120" width="20" height="20"/>
    <rect x="0" y="140" width="20" height="20"/>
    <rect x="0" y="160" width="20" height="20"/>
    <rect x="0" y="180" width="20" height="20"/>
    <rect x="0" y="200" width="20" height="20"/>
    <rect x="0" y="220" width="20" height="20"/>
    <rect x="0" y="240" width="20" height="20"/>
    <rect x="0" y="260" width="20" height="20"/>
    <rect x="0" y="280" width="20" height="20"/>
    <rect x="0" y="300" width="20" height="20"/>
    <rect x="0" y="320" width="20" height="20"/>
    <rect x="0" y="340" width="20" height="20"/>
    <rect x="0" y="360" width="20" height="20"/>
    <rect x="0" y="380" width="20" height="20"/>
    <rect x="0" y="400" width="20" height="20"/>
    <rect x="0" y="420" width="20" height="20"/>
    <rect x="0" y="440" width="20" height="20"/>
    <rect x="0" y="460" width="20" height="20"/>
    <rect x="0" y="480" width="20" height="20"/>
    <rect x="0" y="500" width="20" height="20"/>
    <rect x="340" y="500" width="20" height="20"/>
    <rect x="500" y="500" width="20" height="20"/>
    <rect x="540" y="500" width="20" height="20"/>
    <rect x="640" y="500" width="20" height="20"/>
    <rect x="840" y="500" width="20" height="20"/>
    <rect x="0" y="520" width="20" height="20"/>
    <rect x="400" y="520" width="20" height="20"/>
    <rect x="500" y="520" width="20" height="20"/>
    <rect x="540" y="520" width="20" height="20"/>
    <rect x="560" y="520" width="20" height="20"/>
    <rect x="640" y="520" width="20" height="20"/>
    <rect x="800" y="520" width="20" height="20"/>
    <rect x="840" y="520" width="20" height="20"/>
    <rect x="0" y="540" width="20" height="20"/>
    <rect x="260" y="540" width="20" height="20"/>
    <rect x="780" y="540" width="20" height="20"/>
    <rect x="0" y="560" width="20" height="20"/>
    <rect x="0" y="580" width="20" height="20"/>
    <rect x="0" y="600" width="20" height="20"/>
    <rect x="0" y="620" width="20" height="20"/>
    <rect x="0" y="640" width="20" height="20"/>
    <rect x="0" y="660" width="20" height="20"/>
    <rect x="0" y="680" width="20" height="20"/>
    <rect x="0" y="700" width="20" height="20"/>
    <rect x="0" y="720" width="20" height="20"/>
    <rect x="0" y="740" width="20" height="20"/>
    <rect x="0" y="760" width="20" height="20"/>
    <rect x="0" y="780" width="20" height="20"/>
    <rect x="0" y="800" width="20" height="20"/>
    <rect x="0" y="820" width="20" height="20"/>
    <rect x="0" y="840" width="20" height="20"/>
    <rect x="0" y="860" width="20" height="20"/>
    <rect x="0" y="880" width="20" height="20"/>
    <rect x="0" y="900" width="20" height="20"/>
    <rect x="0" y="920" width="20" height="20"/>
    <rect x="0" y="940" width="20" height="20"/>
    <rect x="0" y="960" width="20" height="20"/>
    <rect x="0" y="980" width="20" height="20"/>
    <rect x="0" y="1000" width="20" height="20"/>
    <rect x="0" y="1020" width="20" height="20"/>
  </g>
</svg>